# xmcd
#
# Track frame offsets: 
#        150
#        16488
#        33910
#        51245
#        77058
#        101343
#        115082
#        127398
#        143106
#        160763
#        184697
#
# Disc length: 2747 seconds
#
# Revision: 2
# Processed by: cddbd v1.5.2PL0 Copyright (c) Steve Scherf et al.
# Submitted via: ExactAudioCopyFreeDBPlugin 1.0
#
DISCID=8d0ab90b
DTITLE=Cyndi Lauper - Memphis Blues
DYEAR=2010
DGENRE=Blues
TTITLE0=Cyndi Lauper (feat. Charlie Musselwhite) - Just Your Fool
TTITLE1=Cyndi Lauper (feat. Allen Toussaint) - Shattered Dreams
TTITLE2=Cyndi Lauper (feat. Allen Toussaint and B.B. King) - Early In 
TTITLE2=The Mornin'
TTITLE3=Romance In The Dark
TTITLE4=Cyndi Lauper (feat. Jonny Lang) - How Blue Can You Get?
TTITLE5=Cyndi Lauper (feat. Charlie Musselwhite) - Down Don't Bother M
TTITLE5=e
TTITLE6=Don't Cry No More
TTITLE7=Cyndi Lauper (feat. Ann Peebles) - Rollin' And Tumblin'
TTITLE8=Down So Low
TTITLE9=Cyndi Lauper (feat. Allen Toussaint) - Mother Earth
TTITLE10=Cyndi Lauper (feat. Jonny Lang) - Crossroads
EXTD=
EXTT0=
EXTT1=
EXTT2=
EXTT3=
EXTT4=
EXTT5=
EXTT6=
EXTT7=
EXTT8=
EXTT9=
EXTT10=
PLAYORDER=
